<svg xmlns="http://www.w3.org/2000/svg" viewBox="0 0 1427 383.4"><defs><style>.cls-1{fill:#e50914;}</style></defs><title>Netflix_Logo</title><g id="Layer_2" data-name="Layer 2"><g id="Netflix_Logo_RGB"><g id="Netflix_Logo_RGB-2" data-name="Netflix_Logo_RGB"><path class="cls-1" d="M1102.06,347.88q30.09,2.3,60.09,5V0h-60.09ZM135.37,217,57.11,0H0V383.4q30-4.27,60.09-8.18V166.74l69.59,199.91q32.83-3.81,65.78-7.2V0H135.37ZM253.25,353.86q83.08-7.55,166.92-12.4V282.25q-53.57,3.1-106.83,7.3V199.9c23.3-.23,54-.94,81.15-.61V140.09c-21.71-.05-56.61.3-81.15.62V59.78H420.17V0H253.25ZM458.69,59.77h62.89V336.65q30-1.13,60.09-1.9v-275h62.89V0H458.69Zm224.4,273.36h60.09V196.42h81.46V137.21H743.18V59.78H850.84V0H683.09ZM1427,0h-66l-43.51,100.85L1278.39,0h-65l69.86,180.21L1207,357q31.65,3.09,63.16,6.57l44.36-102.79,43.93,113.31q34.32,4.41,68.49,9.26l.09,0-78.28-201.89ZM949.45,0H889.36V336.07q81.92,2.82,163.15,8.25V285.11q-51.39-3.43-103.06-5.83Z"/></g></g></g></svg>