<svg clip-rule="evenodd" fill-rule="evenodd" stroke-linejoin="round" stroke-miterlimit="1.41421" viewBox="0 0 560 400" xmlns="http://www.w3.org/2000/svg"><g fill-rule="nonzero"><g fill="#232f3e"><path d="m315.45 184.164c.315-1.049.63-2.046.945-3.096 2.414-8.134 4.828-16.216 7.242-24.351l.315-.945c.263-.944 1.155-1.521 2.099-1.521h7.977c1.995 0 2.415.577 1.732 2.466l-3.148 8.344c-3.517 9.132-7.033 18.316-10.549 27.448-.105.315-.262.629-.367.944-.368 1.102-1.47 1.837-2.624 1.732-2.31-.052-4.619-.052-6.928 0-1.627.053-2.571-.682-3.149-2.152-1.312-3.463-2.676-6.979-3.988-10.443-3.149-8.24-6.35-16.479-9.499-24.771-.315-.63-.525-1.364-.682-2.047-.158-1.049.21-1.574 1.259-1.574 2.992-.052 5.983 0 8.922 0 1.259 0 1.837.84 2.152 1.942.577 1.994 1.154 4.041 1.784 6.035 2.152 7.295 4.251 14.642 6.402 21.937-.052.052 0 .052.105.052z"/><path d="m352.607 174.718v18.893c-.105 1.049-.578 1.522-1.627 1.574-2.834.053-5.616.053-8.45 0-1.049 0-1.522-.525-1.627-1.522-.052-.315-.052-.682-.052-.997v-36.316c.052-1.627.472-2.099 2.099-2.099h7.557c1.627 0 2.1.472 2.1 2.099z"/><path d="m346.781 135.41c1.05-.105 2.099.105 3.097.525 2.046.787 3.463 2.676 3.568 4.881.42 4.775-2.781 7.189-7.032 7.084-.577 0-1.155-.105-1.732-.21-3.254-.787-4.933-3.306-4.618-6.927.262-2.886 2.519-5.038 5.615-5.3.367-.053.735-.105 1.102-.053z"/><path d="m489.895 178.496c0-.052 0-.052 0 0z"/><path d="m489.948 171.464v.21c-.21-.21-.315-.525-.21-.787v-.42s0-.053.052-.053h-.052v-.524h.105c0-.053-.053-.053-.053-.105-.105-.997-.315-1.995-.577-2.939-1.942-6.928-6.298-11.493-13.383-13.278-3.306-.787-6.665-.892-10.023-.367-7.085 1.05-12.176 4.828-14.642 11.546-2.415 6.402-2.362 13.435.052 19.837 2.099 5.825 6.298 9.499 12.333 11.021 3.201.787 6.56.997 9.866.525 11.021-1.312 15.587-9.657 16.322-16.899h-.053v-.735c-.052-.314-.105-.577.21-.787v.105c0-.052.053-.157.105-.21v-6.035c0-.052-.052-.052-.052-.105zm-12.596 9.971c-.315 1.102-.787 2.1-1.469 3.044-1.155 1.627-2.992 2.677-4.986 2.834-.997.105-1.994.105-2.991-.105-2.204-.42-4.041-1.889-4.933-3.936-.788-1.627-1.26-3.411-1.417-5.195-.263-3.097-.315-6.193.42-9.237.262-1.207.787-2.414 1.416-3.464 1.155-1.889 3.149-3.096 5.353-3.253.998-.105 1.995-.105 2.992.105 2.099.419 3.831 1.784 4.776 3.726.892 1.836 1.417 3.883 1.521 5.93.053.945.105 1.889.053 2.834.157 2.309-.105 4.566-.735 6.717z"/><path d="m397.95 135.777h-7.295c-1.994 0-2.362.368-2.362 2.362v17.004c0 .367.158.734-.105 1.102-.472-.053-.735-.368-1.102-.577-5.458-3.202-11.178-3.779-16.951-1.103-4.041 1.89-6.56 5.301-8.187 9.342-1.574 3.883-1.942 7.977-1.837 12.123 0 3.883.892 7.714 2.624 11.178 1.994 3.831 4.881 6.77 9.079 8.03 5.721 1.784 11.074.892 15.954-2.729.368-.21.578-.578 1.05-.683.262.578.472 1.207.577 1.837.21.84.945 1.417 1.837 1.417h1.26c1.889 0 3.726.053 5.562 0 1.47 0 1.89-.472 1.942-1.994v-55.314c-.052-1.627-.472-1.995-2.046-1.995zm-9.604 38.626v9.551c.105.63-.263 1.207-.84 1.47-2.519 1.417-5.406 1.994-8.239 1.574-2.415-.262-4.514-1.732-5.616-3.883-.84-1.68-1.312-3.464-1.469-5.301-.42-3.306-.158-6.665.629-9.866.263-.892.578-1.732 1.05-2.572 1.102-2.046 3.201-3.358 5.51-3.516 2.782-.262 5.563.263 8.082 1.417.63.21.998.84.945 1.522-.105 3.254-.052 6.403-.052 9.604z"/><path d="m429.648 178.549c3.043-.21 6.087-.787 8.816-2.257 2.782-1.364 4.724-3.936 5.301-6.98.367-1.889.367-3.883-.053-5.772-1.102-4.724-4.093-7.663-8.606-9.185-2.519-.787-5.196-1.102-7.82-.997-8.817.21-15.534 4.671-18.263 13.488-1.837 5.825-1.575 11.755.21 17.581 1.837 5.982 6.035 9.604 12.018 11.231 2.571.629 5.248.892 7.872.787 3.831-.053 7.662-.787 11.283-2.152 1.522-.577 1.889-1.102 1.889-2.729v-3.779c-.052-1.521-.682-2.046-2.204-1.679-1.154.315-2.256.577-3.411.84-3.516.839-7.19.997-10.758.367-3.569-.682-5.983-2.729-6.928-6.298-.262-1.049-.472-2.099-.577-3.201.262 0 .525 0 .735.105 3.463.63 6.979.892 10.496.63zm-10.969-8.397c.368-2.047.84-4.041 2.099-5.72 1.942-2.572 4.619-3.307 7.663-2.992.262 0 .472.105.734.105 3.674.578 4.566 3.516 3.884 6.35-.525 2.1-2.257 2.887-4.199 3.254-1.049.21-2.151.315-3.253.263-2.152-.053-4.251-.21-6.35-.525-.473-.053-.683-.263-.578-.735z"/></g><g fill="#00a8e1"><path d="m278.017 264.403c-2.864-.155-5.728-.26-8.592-.469-7.662-.577-15.272-1.731-22.724-3.463-25.768-5.983-48.387-18.001-68.119-35.477-1.837-1.627-3.569-3.306-5.353-4.986-.42-.367-.787-.892-.997-1.417-.315-.734-.158-1.522.367-2.099s1.365-.787 2.099-.472c.473.21.945.42 1.365.682 18.84 11.651 39.412 20.153 60.982 25.191 7.242 1.679 14.537 2.991 21.884 3.936 10.549 1.312 21.202 1.784 31.803 1.417 5.721-.158 11.388-.683 17.056-1.417 13.225-1.68 26.293-4.671 38.941-8.869 6.665-2.205 13.172-4.724 19.522-7.663.945-.524 2.1-.682 3.149-.419 1.732.419 2.782 2.204 2.362 3.936-.053.209-.158.472-.263.682-.419.787-.997 1.469-1.731 1.994-6.036 4.723-12.543 8.869-19.418 12.333-12.963 6.56-26.818 11.231-41.092 13.907-8.224 1.467-16.499 2.358-24.827 2.675l-.049.002v.21h-6.298v-.21zm96.579-51.165c3.463.105 6.875.315 10.233 1.207.945.263 1.837.578 2.729.998 1.207.472 1.995 1.626 2.152 2.886.21 1.469.263 2.991.158 4.513-.683 8.974-3.464 17.634-8.082 25.348-1.68 2.782-3.727 5.301-6.088 7.505-.472.472-1.05.84-1.68 1.05-.997.262-1.626-.263-1.679-1.26.053-.525.158-1.05.367-1.574 1.837-4.933 3.622-9.814 5.039-14.905.839-2.781 1.417-5.615 1.784-8.502.105-1.049.157-2.099.052-3.148-.052-1.785-1.207-3.307-2.938-3.831-1.627-.525-3.307-.84-5.039-.945-4.828-.21-9.656 0-14.432.63l-6.35.787c-.682.052-1.312 0-1.679-.63-.368-.63-.21-1.259.157-1.889.42-.577.945-1.102 1.575-1.47 3.883-2.781 8.239-4.46 12.857-5.563 3.569-.734 7.19-1.102 10.864-1.207z"/><path d="m110.252 170.31c-.21-2.729-.944-5.406-2.046-7.873-2.152-4.513-5.458-7.819-10.496-8.974-5.773-1.259-10.969 0-15.692 3.517-.315.314-.682.577-1.102.787-.105-.053-.21-.105-.21-.158-.157-.525-.262-1.049-.42-1.574-.42-1.312-.945-1.784-2.361-1.784-1.575 0-3.202.052-4.776 0-1.207-.053-2.309.104-3.149 1.049 0 18.368 0 36.789.052 55.104.683 1.103 1.732 1.312 2.939 1.26 1.89-.052 3.779 0 5.668 0 3.307 0 3.307 0 3.307-3.254v-14.957c0-.367-.158-.787.209-1.102 2.624 2.047 5.826 3.307 9.132 3.621 4.618.473 8.817-.682 12.333-3.831 2.571-2.361 4.461-5.405 5.458-8.764 1.417-4.303 1.522-8.659 1.154-13.067zm142.38 7.714c3.936.735 7.977.787 11.913.158 2.309-.315 4.513-.998 6.56-2.1 2.361-1.364 4.093-3.253 4.828-5.877 1.837-6.613-.997-13.278-7.872-15.745-3.359-1.102-6.928-1.469-10.444-.997-8.292.945-13.697 5.511-16.164 13.435-1.732 5.406-1.522 10.916-.105 16.374 1.837 6.98 6.455 11.126 13.435 12.595 3.989.893 8.03.735 12.018.105 2.099-.367 4.199-.892 6.193-1.679 1.207-.472 1.837-1.207 1.784-2.572-.052-1.259 0-2.571 0-3.883 0-1.574-.63-2.047-2.151-1.679-1.522.367-2.992.682-4.514.997-3.254.682-6.612.682-9.866.105-4.461-.893-7.347-4.724-7.085-9.447.472.053.997.105 1.47.21zm-72.213 17.214h-7.033c-1.837 0-2.309-.525-2.309-2.309v-36.422c0-.42.053-.839.158-1.259.209-.63.839-.997 1.469-.997h6.56c.945 0 1.522.577 1.837 1.469.262.735.42 1.417.682 2.204.525 0 .84-.367 1.207-.577 2.887-1.784 5.93-3.306 9.342-3.936 2.624-.525 5.248-.525 7.872 0 2.466.525 4.67 1.994 6.087 4.093.105.158.21.263.315.368-.052.052 0 .052.053.157 1.312-.787 2.676-1.627 4.093-2.361 3.674-1.89 7.767-2.834 11.913-2.625 2.992.158 5.721.998 7.82 3.202 1.994 2.047 2.729 4.566 2.939 7.295.052.577.052 1.154.052 1.784v27.185c0 2.361-.315 2.676-2.676 2.676h-6.403c-.42 0-.84 0-1.259-.052-.63-.053-1.155-.578-1.26-1.207-.105-.578-.105-1.155-.105-1.732v-24.299c.053-.997-.052-1.941-.315-2.886-.42-1.627-1.889-2.781-3.568-2.886-3.097-.21-6.193.419-9.027 1.731-.42.105-.682.525-.63.945v27.605c0 .525 0 .997-.105 1.522 0 .734-.577 1.259-1.312 1.259-.787.053-1.574.053-2.414.053h-5.563c-1.942 0-2.361-.473-2.361-2.414v-24.824c0-.892-.053-1.836-.263-2.729-.367-1.784-1.889-3.043-3.673-3.148-3.149-.21-6.351.419-9.185 1.784-.419.105-.682.577-.577.997v27.972c0 1.942-.42 2.362-2.361 2.362zm-53.11-.053h-6.823c-.367 0-.787 0-1.154-.052-.683-.053-1.208-.63-1.26-1.312-.053-.42-.053-.84-.053-1.26v-35.686c0-2.415.263-2.677 2.677-2.677h5.038c1.365 0 1.994.472 2.362 1.784.367 1.312.682 2.624.997 4.041.367-.105.682-.315.892-.629.945-.945 1.942-1.837 2.991-2.677 2.729-2.099 6.141-3.149 9.552-2.886 1.364.052 1.837.472 1.942 1.784.105 1.784.052 3.621.052 5.405.053.735 0 1.417-.105 2.152-.21.945-.577 1.312-1.522 1.417-.735.053-1.417 0-2.152-.052-3.516-.315-6.927.367-10.233 1.469-.735.263-.735.787-.735 1.365v25.19c0 .472 0 .892-.052 1.365-.053.682-.578 1.207-1.26 1.207-.367.052-.787.052-1.154.052zm31.698-.105h-7.295c-.263 0-.472 0-.735-.052-.735-.053-1.364-.63-1.417-1.365-.052-.42-.052-.839-.052-1.259.052-5.826.052-11.808.052-17.791v-18.631c.053-1.259.525-1.731 1.784-1.784 2.729-.052 5.458-.052 8.187 0 1.207 0 1.575.367 1.68 1.574.052.473.052.893.052 1.365v34.952c0 .577-.052 1.154-.105 1.732-.052.682-.577 1.154-1.259 1.207-.315.052-.577.052-.892.052zm-61.297-13.907c-.368 1.627-1.207 3.096-2.414 4.198-1.365 1.155-3.044 1.837-4.829 1.837-2.676.158-5.3-.42-7.662-1.679-.577-.263-.944-.84-.892-1.47v-9.499c0-3.148.053-6.297 0-9.446-.052-.735.367-1.365 1.05-1.627 2.886-1.364 5.877-1.994 9.026-1.364 2.204.314 4.094 1.731 4.986 3.778.787 1.68 1.259 3.516 1.364 5.353.315 3.359.315 6.718-.629 9.919zm153.61-11.178c.157-1.26.524-2.467.997-3.622 1.574-3.831 4.88-5.143 8.239-4.933.945.053 1.889.263 2.781.63 1.365.577 2.257 1.837 2.415 3.306.157.893.105 1.837-.158 2.729-.63 1.89-2.152 2.677-3.988 3.044-1.102.263-2.257.368-3.412.263-2.046 0-4.146-.158-6.192-.473-.787-.105-.787-.105-.682-.944zm-95.672-34.585c.84-.052 1.679.105 2.466.367 2.834.945 4.304 3.412 4.041 6.613-.209 2.729-2.256 4.933-4.985 5.353-1.155.21-2.362.21-3.516 0-2.992-.577-5.196-2.781-4.986-6.56.315-3.726 2.781-5.773 6.98-5.773z"/></g></g></svg>